<?xml version="1.0" standalone="no"?>
<!DOCTYPE svg PUBLIC "-//W3C//DTD SVG 20010904//EN"
 "http://www.w3.org/TR/2001/REC-SVG-20010904/DTD/svg10.dtd">
<svg version="1.0" xmlns="http://www.w3.org/2000/svg"
 width="2000.000000pt" height="500.000000pt" viewBox="0 0 2000.000000 500.000000"
 preserveAspectRatio="xMidYMid meet">

<g transform="translate(0.000000,500.000000) scale(0.100000,-0.100000)"
fill="#000000" stroke="none">
<path d="M6415 4965 c-51 -30 -66 -35 -100 -29 -110 17 -135 12 -259 -48 -128
-63 -153 -70 -136 -39 5 11 10 21 10 23 0 3 -27 2 -60 0 -46 -3 -80 2 -144 22
-83 26 -152 32 -190 17 -11 -4 -70 3 -138 16 -117 24 -118 24 -146 5 -48 -35
-150 -82 -209 -97 -64 -17 -125 -7 -142 22 -8 16 -11 16 -35 0 -43 -29 -81
-22 -130 23 -24 22 -48 40 -53 40 -6 0 -59 -22 -119 -50 -130 -59 -161 -62
-274 -20 -106 39 -138 31 -250 -60 l-45 -37 -104 12 -105 13 -61 -39 c-34 -21
-67 -39 -72 -39 -6 0 -41 14 -78 32 l-68 31 -138 -25 -138 -26 -82 24 c-46 13
-90 24 -99 24 -9 0 -47 -16 -86 -35 -77 -39 -157 -65 -201 -65 -16 0 -67 11
-114 26 -46 14 -97 23 -114 21 -68 -11 -300 -114 -356 -159 l-39 -31 -83 88
-83 88 -84 -21 c-47 -11 -101 -21 -120 -21 -19 1 -101 -20 -182 -45 -81 -25
-149 -46 -150 -46 -2 0 -4 12 -5 27 -4 77 -102 81 -274 13 -57 -23 -114 -48
-126 -56 -12 -7 -86 -37 -163 -65 -113 -41 -146 -49 -163 -41 -12 5 -60 46
-107 90 -82 77 -87 79 -110 66 -54 -30 -161 -53 -291 -63 -75 -6 -147 -15
-161 -20 l-24 -9 17 -154 c10 -84 18 -154 18 -154 1 -1 12 -5 26 -8 13 -3 31
-20 40 -36 21 -41 20 -53 -4 -40 -11 5 -38 10 -60 10 l-41 0 0 -2060 0 -2060
9990 0 9990 0 0 1940 0 1940 -62 1 -63 2 63 10 62 10 0 178 c0 168 -1 178 -20
184 -12 4 -36 -3 -63 -19 -50 -29 -102 -33 -135 -10 -20 14 -24 14 -44 0 -46
-32 -141 -14 -285 55 l-83 39 -147 0 c-82 0 -179 1 -218 1 -38 1 -122 0 -185
-2 -112 -4 -117 -3 -187 29 -96 43 -187 66 -232 57 -73 -14 -106 -9 -169 23
l-62 32 -153 -4 c-83 -3 -224 -12 -312 -22 -157 -17 -162 -17 -265 3 -120 24
-133 21 -196 -37 -50 -46 -83 -57 -132 -42 -87 25 -378 64 -435 57 -54 -6 -62
-4 -108 26 l-49 31 -173 -32 c-94 -17 -194 -36 -220 -41 -48 -9 -48 -9 -121
46 l-73 55 -100 0 c-90 0 -112 4 -205 36 -56 20 -111 40 -121 46 -13 7 -23 6
-35 -5 -9 -8 -42 -27 -72 -43 -30 -17 -64 -36 -76 -43 -18 -12 -26 -10 -70 24
-27 21 -81 54 -120 73 l-72 35 -56 -31 -55 -32 -58 15 c-38 10 -107 15 -208
15 -165 0 -225 11 -290 55 l-37 26 -54 -21 c-74 -27 -185 -27 -254 0 -47 19
-53 19 -82 4 -44 -23 -160 -28 -238 -12 -73 16 -117 9 -145 -22 -31 -34 -80
-26 -159 25 -38 25 -75 45 -82 45 -8 0 -34 10 -58 22 l-45 21 -42 -38 -42 -38
-96 7 c-53 3 -136 15 -185 26 -50 11 -106 20 -126 20 -40 0 -110 22 -204 64
-95 43 -135 44 -206 7 -54 -29 -65 -31 -92 -22 -46 16 -95 13 -178 -10 -41
-12 -102 -23 -135 -25 -33 -2 -87 -10 -120 -19 -33 -8 -88 -15 -122 -15 -54 0
-76 7 -170 51 l-108 51 -47 -16 c-34 -12 -53 -14 -70 -6 -13 5 -51 17 -86 25
l-63 16 -74 -40 c-41 -22 -75 -35 -77 -29 -2 5 -25 11 -52 12 -51 2 -70 17
-167 136 l-35 44 -95 -41 c-158 -69 -257 -89 -322 -64 -19 7 -37 3 -82 -20
-50 -25 -69 -29 -142 -29 -46 0 -126 5 -177 10 -72 8 -108 8 -158 -3 l-65 -13
-49 43 c-26 24 -52 43 -56 43 -18 0 -187 -90 -218 -117 -27 -22 -32 -24 -27
-9 4 10 3 34 -3 52 -12 34 -48 54 -100 54 -15 0 -41 5 -57 11 -26 9 -46 5
-134 -26 -112 -39 -97 -38 -334 -21 -22 1 -70 18 -107 36 -64 32 -68 33 -86
17 -12 -11 -22 -37 -25 -69 -4 -28 -11 -56 -16 -61 -14 -14 -113 11 -233 59
l-109 44 -38 -19 c-20 -11 -61 -38 -90 -61 l-53 -42 7 31 c8 39 -1 68 -27 82
-12 6 -64 17 -116 25 -104 14 -120 11 -187 -37 -51 -37 -71 -31 -109 30 -23
36 -28 38 -93 45 -37 5 -167 11 -288 16 -193 7 -244 12 -410 45 -264 51 -250
51 -320 10z"/>
</g>
</svg>
